<?xml version="1.0" encoding="utf-8"?>
<!-- Generator: Adobe Illustrator 27.0.0, SVG Export Plug-In . SVG Version: 6.00 Build 0)  -->
<!DOCTYPE svg PUBLIC "-//W3C//DTD SVG 1.1//EN" "http://www.w3.org/Graphics/SVG/1.1/DTD/svg11.dtd" [
	<!ENTITY ns_extend "http://ns.adobe.com/Extensibility/1.0/">
	<!ENTITY ns_ai "http://ns.adobe.com/AdobeIllustrator/10.0/">
	<!ENTITY ns_graphs "http://ns.adobe.com/Graphs/1.0/">
	<!ENTITY ns_vars "http://ns.adobe.com/Variables/1.0/">
	<!ENTITY ns_imrep "http://ns.adobe.com/ImageReplacement/1.0/">
	<!ENTITY ns_sfw "http://ns.adobe.com/SaveForWeb/1.0/">
	<!ENTITY ns_custom "http://ns.adobe.com/GenericCustomNamespace/1.0/">
	<!ENTITY ns_adobe_xpath "http://ns.adobe.com/XPath/1.0/">
]>
<svg version="1.1" id="Layer_1" xmlns:x="&ns_extend;" xmlns:i="&ns_ai;" xmlns:graph="&ns_graphs;"
	 xmlns="http://www.w3.org/2000/svg" xmlns:xlink="http://www.w3.org/1999/xlink" x="0px" y="0px" viewBox="0 0 441.132 109.141"
	 style="enable-background:new 0 0 441.132 109.141;" xml:space="preserve">
<style type="text/css">
	.st0{fill:url(#SVGID_1_);}
</style>
<metadata>
	<sfw  xmlns="&ns_sfw;">
		<slices></slices>
		<sliceSourceBounds  bottomLeftOrigin="true" height="68.707" width="395.351" x="25.339" y="-89.082"></sliceSourceBounds>
		<optimizationSettings>
			<targetSettings  fileFormat="PNG24Format" targetSettingsID="0">
				<PNG24Format  filtered="false" interlaced="true" matteColor="#FFFFFF" noMatteColor="false" transparency="true">
					</PNG24Format>
			</targetSettings>
		</optimizationSettings>
	</sfw>
</metadata>
<g>
	<g>
		<g>
			<path d="M113.547,59.813h8.813v3.379h-12.908v-22.01h4.095V59.813z"/>
			<path d="M129.544,43.024c0,0.325-0.066,0.629-0.198,0.913c-0.132,0.284-0.307,0.533-0.525,0.746
				c-0.218,0.213-0.475,0.383-0.769,0.51c-0.294,0.127-0.609,0.191-0.944,0.191c-0.325,0-0.632-0.063-0.921-0.191
				c-0.289-0.126-0.54-0.297-0.754-0.51c-0.213-0.213-0.383-0.462-0.51-0.746c-0.127-0.284-0.19-0.588-0.19-0.913
				c0-0.335,0.063-0.649,0.19-0.944c0.127-0.294,0.297-0.548,0.51-0.761c0.213-0.213,0.464-0.383,0.754-0.51
				c0.289-0.127,0.596-0.191,0.921-0.191c0.335,0,0.649,0.064,0.944,0.191c0.294,0.127,0.55,0.297,0.769,0.51
				c0.218,0.213,0.393,0.467,0.525,0.761C129.478,42.375,129.544,42.689,129.544,43.024z M128.981,47.575v15.617h-3.76V47.575
				H128.981z"/>
			<path d="M133.228,63.192V47.575h2.298c0.487,0,0.807,0.229,0.959,0.685l0.259,1.233c0.314-0.325,0.647-0.619,0.997-0.883
				c0.35-0.264,0.72-0.492,1.111-0.685c0.39-0.193,0.809-0.34,1.256-0.442c0.446-0.101,0.933-0.152,1.461-0.152
				c0.852,0,1.608,0.145,2.268,0.434c0.659,0.289,1.21,0.695,1.652,1.218c0.441,0.523,0.776,1.147,1.005,1.872
				c0.228,0.726,0.342,1.525,0.342,2.397v9.939h-3.76v-9.939c0-0.954-0.221-1.692-0.662-2.215c-0.442-0.523-1.104-0.784-1.986-0.784
				c-0.649,0-1.258,0.147-1.826,0.442c-0.568,0.294-1.106,0.695-1.614,1.202v11.294H133.228z"/>
			<path d="M162.772,63.192h-1.69c-0.355,0-0.634-0.053-0.837-0.16c-0.203-0.107-0.355-0.322-0.457-0.647l-0.335-1.111
				c-0.396,0.355-0.784,0.667-1.164,0.936c-0.38,0.269-0.774,0.495-1.179,0.677c-0.406,0.183-0.837,0.319-1.294,0.411
				c-0.457,0.091-0.964,0.137-1.522,0.137c-0.66,0-1.269-0.089-1.827-0.267c-0.558-0.178-1.038-0.445-1.438-0.802
				c-0.401-0.356-0.713-0.799-0.936-1.329s-0.335-1.145-0.335-1.848c0-0.591,0.155-1.173,0.464-1.749
				c0.309-0.575,0.825-1.094,1.545-1.557c0.72-0.463,1.679-0.848,2.877-1.153c1.197-0.306,2.684-0.458,4.46-0.458v-0.92
				c0-1.053-0.221-1.833-0.662-2.339c-0.441-0.506-1.083-0.759-1.926-0.759c-0.609,0-1.116,0.071-1.522,0.213
				c-0.406,0.142-0.759,0.302-1.058,0.48c-0.299,0.178-0.576,0.337-0.83,0.48s-0.533,0.213-0.837,0.213
				c-0.254,0-0.472-0.066-0.654-0.198c-0.183-0.132-0.33-0.294-0.442-0.487l-0.685-1.202c1.796-1.644,3.963-2.466,6.499-2.466
				c0.913,0,1.727,0.15,2.443,0.449c0.716,0.299,1.322,0.716,1.819,1.248c0.497,0.533,0.875,1.17,1.134,1.91
				c0.259,0.741,0.388,1.553,0.388,2.436V63.192z M155.466,60.848c0.386,0,0.741-0.035,1.066-0.105
				c0.325-0.07,0.631-0.175,0.921-0.315c0.289-0.14,0.568-0.312,0.837-0.517c0.269-0.205,0.54-0.447,0.814-0.727v-2.614
				c-1.096,0-2.012,0.069-2.748,0.207c-0.736,0.138-1.327,0.314-1.773,0.529c-0.447,0.215-0.764,0.465-0.951,0.751
				c-0.188,0.286-0.282,0.598-0.282,0.935c0,0.665,0.195,1.14,0.586,1.426C154.327,60.705,154.836,60.848,155.466,60.848z"/>
			<path d="M171.874,47.301c0.669,0,1.299,0.068,1.887,0.206c0.588,0.137,1.126,0.337,1.614,0.601h4.49v1.4
				c0,0.234-0.061,0.416-0.183,0.548s-0.33,0.223-0.624,0.274l-1.4,0.259c0.101,0.264,0.18,0.543,0.236,0.837
				c0.056,0.294,0.083,0.604,0.083,0.928c0,0.771-0.155,1.469-0.464,2.093c-0.309,0.624-0.736,1.154-1.278,1.591
				c-0.543,0.436-1.187,0.774-1.933,1.012c-0.746,0.239-1.555,0.358-2.428,0.358c-0.589,0-1.162-0.056-1.72-0.168
				c-0.487,0.297-0.731,0.629-0.731,0.996c0,0.317,0.144,0.55,0.434,0.698c0.289,0.148,0.67,0.253,1.142,0.314
				c0.472,0.061,1.007,0.092,1.606,0.092s1.212,0.025,1.842,0.076s1.243,0.14,1.842,0.267c0.599,0.127,1.134,0.328,1.606,0.603
				c0.472,0.275,0.852,0.649,1.142,1.123c0.289,0.473,0.434,1.082,0.434,1.825c0,0.692-0.17,1.364-0.51,2.016
				c-0.34,0.652-0.832,1.232-1.476,1.741c-0.644,0.509-1.433,0.918-2.367,1.229c-0.934,0.31-1.999,0.466-3.196,0.466
				c-1.187,0-2.217-0.114-3.09-0.342c-0.873-0.229-1.596-0.533-2.169-0.913c-0.573-0.38-1.002-0.82-1.286-1.317
				c-0.284-0.497-0.426-1.015-0.426-1.552c0-0.731,0.223-1.345,0.67-1.842c0.446-0.497,1.065-0.893,1.857-1.187
				c-0.386-0.213-0.695-0.497-0.928-0.852c-0.234-0.355-0.35-0.817-0.35-1.385c0-0.233,0.04-0.474,0.122-0.723
				c0.081-0.248,0.205-0.495,0.373-0.738c0.167-0.244,0.378-0.474,0.631-0.692c0.254-0.218,0.553-0.413,0.898-0.586
				c-0.792-0.426-1.413-0.994-1.865-1.705c-0.452-0.71-0.677-1.542-0.677-2.496c0-0.771,0.154-1.469,0.464-2.093
				c0.309-0.624,0.741-1.157,1.294-1.598c0.553-0.442,1.207-0.779,1.964-1.012C170.156,47.418,170.981,47.301,171.874,47.301z
				 M175.999,63.848c0-0.311-0.091-0.565-0.274-0.761c-0.183-0.197-0.431-0.35-0.746-0.458c-0.315-0.109-0.683-0.189-1.104-0.241
				c-0.421-0.052-0.868-0.078-1.34-0.078c-0.472,0-0.959,0-1.461,0c-0.503,0-0.987-0.056-1.454-0.167
				c-0.426,0.234-0.769,0.51-1.027,0.83c-0.259,0.319-0.388,0.687-0.388,1.104c0,0.274,0.068,0.53,0.206,0.769
				c0.137,0.238,0.355,0.444,0.654,0.616c0.299,0.172,0.687,0.307,1.164,0.403c0.477,0.096,1.06,0.145,1.75,0.145
				c0.7,0,1.304-0.054,1.811-0.163c0.507-0.109,0.926-0.259,1.256-0.451c0.33-0.192,0.571-0.42,0.723-0.684
				C175.923,64.446,175.999,64.158,175.999,63.848z M171.874,55.003c0.466,0,0.873-0.063,1.217-0.19
				c0.345-0.127,0.632-0.302,0.86-0.525c0.229-0.223,0.401-0.492,0.518-0.807c0.116-0.314,0.175-0.66,0.175-1.035
				c0-0.771-0.231-1.383-0.693-1.834c-0.462-0.451-1.154-0.677-2.077-0.677c-0.924,0-1.616,0.226-2.078,0.677
				c-0.462,0.452-0.693,1.063-0.693,1.834c0,0.365,0.058,0.705,0.175,1.02c0.116,0.315,0.289,0.586,0.518,0.814
				c0.228,0.228,0.518,0.406,0.868,0.533C171.014,54.94,171.418,55.003,171.874,55.003z"/>
			<path d="M188.678,47.331c0.984,0,1.89,0.158,2.717,0.472c0.827,0.314,1.54,0.774,2.139,1.377c0.599,0.604,1.066,1.345,1.4,2.222
				c0.335,0.878,0.502,1.88,0.502,3.006c0,0.284-0.013,0.52-0.038,0.708c-0.025,0.188-0.071,0.335-0.137,0.441
				c-0.066,0.107-0.155,0.183-0.266,0.229c-0.112,0.045-0.254,0.068-0.426,0.068h-9.65c0.112,1.604,0.543,2.781,1.294,3.531
				c0.751,0.751,1.745,1.126,2.984,1.126c0.609,0,1.134-0.071,1.575-0.213c0.441-0.142,0.827-0.299,1.157-0.472
				c0.33-0.172,0.619-0.33,0.868-0.472c0.249-0.142,0.489-0.213,0.723-0.213c0.152,0,0.284,0.03,0.395,0.091
				s0.208,0.147,0.289,0.259l1.096,1.37c-0.416,0.487-0.883,0.896-1.4,1.225c-0.518,0.33-1.058,0.593-1.621,0.792
				c-0.563,0.198-1.137,0.337-1.72,0.418c-0.583,0.081-1.149,0.122-1.697,0.122c-1.086,0-2.096-0.18-3.029-0.54
				c-0.934-0.36-1.745-0.893-2.435-1.598c-0.69-0.705-1.233-1.578-1.629-2.618c-0.396-1.04-0.594-2.245-0.594-3.615
				c0-1.066,0.173-2.068,0.518-3.006c0.345-0.938,0.84-1.755,1.484-2.451c0.644-0.695,1.431-1.246,2.359-1.652
				C186.463,47.535,187.511,47.331,188.678,47.331z M188.754,50.026c-1.096,0-1.954,0.309-2.572,0.928
				c-0.619,0.619-1.015,1.497-1.187,2.633h7.063c0-0.487-0.066-0.946-0.198-1.378c-0.132-0.431-0.335-0.809-0.609-1.134
				c-0.274-0.325-0.619-0.581-1.035-0.769C189.799,50.12,189.312,50.026,188.754,50.026z"/>
			<path d="M204.949,47.331c0.984,0,1.89,0.158,2.716,0.472c0.827,0.314,1.54,0.774,2.139,1.377c0.598,0.604,1.065,1.345,1.4,2.222
				c0.335,0.878,0.502,1.88,0.502,3.006c0,0.284-0.013,0.52-0.038,0.708c-0.026,0.188-0.072,0.335-0.138,0.441
				c-0.066,0.107-0.155,0.183-0.266,0.229c-0.112,0.045-0.254,0.068-0.426,0.068h-9.651c0.112,1.604,0.543,2.781,1.294,3.531
				c0.751,0.751,1.746,1.126,2.984,1.126c0.609,0,1.134-0.071,1.575-0.213c0.441-0.142,0.827-0.299,1.157-0.472
				c0.33-0.172,0.619-0.33,0.868-0.472c0.249-0.142,0.489-0.213,0.724-0.213c0.152,0,0.284,0.03,0.395,0.091
				s0.208,0.147,0.289,0.259l1.096,1.37c-0.416,0.487-0.883,0.896-1.4,1.225c-0.518,0.33-1.058,0.593-1.621,0.792
				c-0.563,0.198-1.137,0.337-1.72,0.418c-0.584,0.081-1.149,0.122-1.697,0.122c-1.086,0-2.096-0.18-3.029-0.54
				c-0.934-0.36-1.745-0.893-2.435-1.598c-0.69-0.705-1.233-1.578-1.629-2.618c-0.396-1.04-0.594-2.245-0.594-3.615
				c0-1.066,0.173-2.068,0.518-3.006c0.345-0.938,0.84-1.755,1.484-2.451c0.644-0.695,1.431-1.246,2.359-1.652
				C202.734,47.535,203.782,47.331,204.949,47.331z M205.025,50.026c-1.096,0-1.954,0.309-2.572,0.928
				c-0.619,0.619-1.015,1.497-1.187,2.633h7.063c0-0.487-0.067-0.946-0.198-1.378c-0.132-0.431-0.335-0.809-0.608-1.134
				c-0.274-0.325-0.62-0.581-1.035-0.769C206.07,50.12,205.583,50.026,205.025,50.026z"/>
			<path d="M222.924,41.707c0.081,0.035,0.167,0.114,0.259,0.236l13.942,18.661c-0.03-0.304-0.046-0.599-0.046-0.883V41.654h1.37
				v21.538h-0.746c-0.234,0-0.421-0.101-0.563-0.304l-14.003-18.692c0.031,0.304,0.046,0.594,0.046,0.868v18.128h-1.355V41.654
				h0.761C222.731,41.654,222.843,41.672,222.924,41.707z"/>
			<path d="M253.777,63.192c-0.304,0-0.492-0.142-0.563-0.426l-0.213-1.933c-0.416,0.406-0.83,0.771-1.241,1.096
				c-0.411,0.325-0.84,0.599-1.286,0.822c-0.447,0.223-0.929,0.393-1.446,0.51c-0.517,0.117-1.086,0.175-1.705,0.175
				c-0.517,0-1.019-0.076-1.507-0.229c-0.487-0.152-0.918-0.385-1.294-0.7c-0.376-0.314-0.678-0.718-0.906-1.21
				c-0.228-0.492-0.342-1.083-0.342-1.773c0-0.639,0.183-1.233,0.548-1.781c0.365-0.548,0.936-1.025,1.713-1.431
				c0.776-0.406,1.775-0.731,2.998-0.974c1.223-0.244,2.692-0.385,4.407-0.426v-1.583c0-1.4-0.302-2.479-0.905-3.235
				c-0.604-0.756-1.499-1.134-2.687-1.134c-0.731,0-1.352,0.102-1.865,0.304c-0.512,0.203-0.946,0.426-1.301,0.67
				c-0.355,0.244-0.645,0.467-0.868,0.67c-0.223,0.203-0.411,0.304-0.564,0.304c-0.203,0-0.355-0.091-0.456-0.274l-0.259-0.442
				c0.792-0.791,1.623-1.39,2.496-1.796c0.873-0.406,1.863-0.609,2.969-0.609c0.812,0,1.522,0.129,2.13,0.388
				c0.609,0.259,1.114,0.629,1.515,1.111c0.4,0.482,0.702,1.066,0.905,1.75c0.203,0.685,0.304,1.448,0.304,2.291v9.863H253.777z
				 M247.689,62.385c0.589,0,1.129-0.063,1.621-0.19c0.492-0.127,0.948-0.304,1.37-0.533c0.421-0.228,0.814-0.5,1.18-0.814
				s0.726-0.655,1.081-1.02v-3.942c-1.441,0.04-2.682,0.15-3.721,0.327c-1.041,0.178-1.898,0.418-2.572,0.723
				s-1.172,0.667-1.492,1.089c-0.319,0.421-0.479,0.9-0.479,1.438c0,0.508,0.084,0.947,0.251,1.317
				c0.167,0.371,0.388,0.675,0.662,0.913c0.274,0.239,0.594,0.414,0.959,0.525C246.913,62.329,247.293,62.385,247.689,62.385z"/>
			<path d="M258.922,63.192V48.047h0.792c0.264,0,0.415,0.127,0.456,0.381l0.137,2.192c0.294-0.416,0.609-0.796,0.944-1.142
				c0.335-0.345,0.693-0.641,1.073-0.89c0.38-0.249,0.786-0.441,1.218-0.578c0.431-0.137,0.885-0.205,1.362-0.205
				c1.106,0,1.989,0.322,2.649,0.966c0.659,0.644,1.105,1.54,1.339,2.687c0.183-0.629,0.438-1.172,0.768-1.629
				c0.329-0.457,0.706-0.835,1.132-1.134c0.426-0.299,0.889-0.523,1.39-0.67c0.501-0.147,1.016-0.221,1.543-0.221
				c0.749,0,1.423,0.124,2.021,0.373c0.598,0.249,1.107,0.616,1.527,1.104s0.742,1.086,0.965,1.796
				c0.223,0.711,0.335,1.522,0.335,2.436v9.68h-1.446v-9.68c0-1.482-0.32-2.611-0.959-3.387c-0.64-0.776-1.552-1.164-2.74-1.164
				c-0.527,0-1.032,0.097-1.514,0.289c-0.482,0.193-0.908,0.479-1.279,0.86c-0.37,0.38-0.665,0.855-0.883,1.423
				c-0.219,0.568-0.327,1.228-0.327,1.979v9.68h-1.446v-9.68c0-1.471-0.294-2.598-0.883-3.379c-0.589-0.781-1.446-1.172-2.572-1.172
				c-0.822,0-1.583,0.246-2.283,0.738c-0.7,0.492-1.325,1.175-1.873,2.047v11.446H258.922z"/>
			<path d="M289.302,47.804c0.852,0,1.641,0.147,2.367,0.441c0.726,0.294,1.355,0.723,1.888,1.286
				c0.532,0.563,0.948,1.256,1.248,2.078c0.299,0.822,0.449,1.765,0.449,2.831c0,0.223-0.033,0.375-0.099,0.457
				c-0.066,0.081-0.17,0.122-0.312,0.122h-10.929v0.289c0,1.136,0.132,2.136,0.396,2.999c0.264,0.862,0.639,1.586,1.126,2.169
				c0.487,0.584,1.075,1.023,1.766,1.317c0.69,0.294,1.461,0.442,2.313,0.442c0.762,0,1.421-0.084,1.979-0.251
				c0.558-0.168,1.027-0.355,1.408-0.563c0.38-0.208,0.683-0.396,0.905-0.563c0.224-0.168,0.386-0.251,0.487-0.251
				c0.132,0,0.234,0.051,0.304,0.152l0.396,0.487c-0.244,0.304-0.566,0.588-0.967,0.852c-0.4,0.264-0.847,0.49-1.339,0.677
				c-0.493,0.188-1.02,0.338-1.583,0.449s-1.129,0.167-1.697,0.167c-1.035,0-1.979-0.18-2.831-0.54
				c-0.852-0.36-1.585-0.885-2.194-1.575c-0.611-0.69-1.082-1.535-1.416-2.534c-0.333-0.999-0.499-2.144-0.499-3.432
				c0-1.086,0.154-2.088,0.464-3.006c0.309-0.918,0.756-1.71,1.339-2.374c0.584-0.664,1.299-1.185,2.146-1.56
				C287.265,47.991,288.226,47.804,289.302,47.804z M289.324,48.884c-0.78,0-1.479,0.122-2.097,0.365
				c-0.618,0.244-1.153,0.594-1.603,1.05c-0.451,0.457-0.816,1.005-1.095,1.644c-0.279,0.639-0.463,1.355-0.554,2.146h9.97
				c0-0.812-0.112-1.539-0.335-2.184c-0.224-0.644-0.537-1.19-0.943-1.636c-0.405-0.446-0.891-0.789-1.458-1.028
				C290.641,49.003,290.014,48.884,289.324,48.884z"/>
			<path d="M307.309,53.451v9.741h-1.552V41.654h5.494c2.486,0,4.343,0.48,5.571,1.438c1.228,0.959,1.842,2.367,1.842,4.224
				c0,0.822-0.142,1.573-0.426,2.253s-0.693,1.276-1.225,1.788c-0.533,0.513-1.175,0.934-1.926,1.264
				c-0.751,0.33-1.598,0.546-2.542,0.647c0.244,0.152,0.462,0.355,0.655,0.609l7.413,9.315h-1.355c-0.163,0-0.302-0.03-0.419-0.091
				s-0.231-0.162-0.342-0.304l-6.895-8.737c-0.173-0.223-0.357-0.38-0.556-0.472c-0.198-0.091-0.504-0.137-0.921-0.137H307.309z
				 M307.309,52.294h3.744c0.953,0,1.809-0.114,2.565-0.342c0.756-0.229,1.395-0.556,1.918-0.982
				c0.522-0.426,0.921-0.938,1.195-1.537c0.274-0.599,0.41-1.273,0.41-2.024c0-1.532-0.502-2.669-1.507-3.41
				c-1.005-0.741-2.466-1.111-4.384-1.111h-3.942V52.294z"/>
			<path d="M329.486,47.804c0.852,0,1.642,0.147,2.367,0.441c0.726,0.294,1.355,0.723,1.888,1.286
				c0.533,0.563,0.949,1.256,1.249,2.078c0.299,0.822,0.448,1.765,0.448,2.831c0,0.223-0.033,0.375-0.099,0.457
				c-0.066,0.081-0.17,0.122-0.312,0.122h-10.929v0.289c0,1.136,0.132,2.136,0.395,2.999c0.264,0.862,0.639,1.586,1.126,2.169
				c0.487,0.584,1.076,1.023,1.766,1.317c0.69,0.294,1.461,0.442,2.314,0.442c0.761,0,1.421-0.084,1.979-0.251
				c0.558-0.168,1.027-0.355,1.408-0.563c0.38-0.208,0.682-0.396,0.905-0.563c0.223-0.168,0.385-0.251,0.487-0.251
				c0.132,0,0.233,0.051,0.304,0.152l0.395,0.487c-0.244,0.304-0.566,0.588-0.966,0.852c-0.401,0.264-0.847,0.49-1.34,0.677
				c-0.492,0.188-1.02,0.338-1.583,0.449s-1.129,0.167-1.697,0.167c-1.035,0-1.979-0.18-2.831-0.54
				c-0.852-0.36-1.584-0.885-2.194-1.575c-0.61-0.69-1.082-1.535-1.416-2.534c-0.334-0.999-0.5-2.144-0.5-3.432
				c0-1.086,0.155-2.088,0.464-3.006c0.309-0.918,0.756-1.71,1.34-2.374c0.583-0.664,1.299-1.185,2.146-1.56
				S328.411,47.804,329.486,47.804z M329.509,48.884c-0.781,0-1.48,0.122-2.098,0.365c-0.618,0.244-1.153,0.594-1.604,1.05
				c-0.451,0.457-0.815,1.005-1.094,1.644c-0.279,0.639-0.463,1.355-0.554,2.146h9.97c0-0.812-0.112-1.539-0.335-2.184
				c-0.223-0.644-0.537-1.19-0.942-1.636c-0.405-0.446-0.892-0.789-1.459-1.028C330.826,49.003,330.197,48.884,329.509,48.884z"/>
			<path d="M344.327,47.788c0.659,0,1.271,0.081,1.834,0.244c0.563,0.162,1.068,0.391,1.514,0.685h3.882v0.503
				c0,0.254-0.143,0.391-0.426,0.411l-2.299,0.168c0.284,0.386,0.502,0.82,0.655,1.301c0.152,0.482,0.229,0.997,0.229,1.545
				c0,0.731-0.133,1.393-0.396,1.986c-0.264,0.593-0.632,1.101-1.103,1.522c-0.472,0.421-1.038,0.748-1.698,0.982
				c-0.659,0.234-1.39,0.35-2.191,0.35c-0.873,0-1.665-0.132-2.375-0.396c-0.426,0.244-0.761,0.533-1.004,0.868
				s-0.365,0.66-0.365,0.974c0,0.437,0.152,0.771,0.456,1.005c0.304,0.234,0.708,0.403,1.21,0.51
				c0.503,0.107,1.076,0.175,1.72,0.206c0.645,0.03,1.299,0.063,1.964,0.099c0.665,0.036,1.32,0.099,1.964,0.191
				c0.645,0.091,1.218,0.251,1.72,0.479c0.503,0.229,0.906,0.548,1.211,0.959c0.304,0.411,0.456,0.956,0.456,1.637
				c0,0.629-0.158,1.233-0.472,1.811c-0.314,0.578-0.769,1.091-1.362,1.537c-0.594,0.446-1.312,0.804-2.154,1.073
				c-0.842,0.269-1.786,0.403-2.831,0.403c-1.065,0-1.999-0.109-2.801-0.327c-0.802-0.218-1.474-0.513-2.017-0.883
				c-0.543-0.371-0.951-0.799-1.225-1.286c-0.274-0.487-0.411-1.005-0.411-1.553c0-0.802,0.264-1.492,0.792-2.07
				c0.527-0.578,1.253-1.025,2.176-1.34c-0.507-0.172-0.91-0.421-1.21-0.746s-0.449-0.777-0.449-1.355
				c0-0.213,0.041-0.436,0.122-0.67c0.081-0.234,0.203-0.464,0.365-0.693c0.163-0.228,0.357-0.444,0.586-0.647
				c0.229-0.203,0.495-0.385,0.799-0.548c-0.721-0.416-1.282-0.969-1.682-1.659c-0.401-0.69-0.602-1.496-0.602-2.42
				c0-0.731,0.13-1.393,0.388-1.986c0.259-0.594,0.624-1.104,1.096-1.53s1.043-0.756,1.713-0.99
				C342.774,47.905,343.514,47.788,344.327,47.788z M349.943,64.212c0-0.477-0.124-0.86-0.372-1.149
				c-0.249-0.289-0.581-0.515-0.997-0.677c-0.416-0.162-0.895-0.277-1.438-0.342c-0.543-0.066-1.111-0.114-1.705-0.145
				c-0.593-0.03-1.19-0.061-1.788-0.091c-0.599-0.03-1.157-0.091-1.675-0.183c-0.385,0.152-0.744,0.327-1.073,0.525
				c-0.33,0.198-0.611,0.421-0.845,0.67c-0.234,0.249-0.416,0.523-0.548,0.822c-0.132,0.299-0.198,0.626-0.198,0.982
				c0,0.446,0.114,0.86,0.342,1.24c0.229,0.38,0.563,0.71,1.004,0.989c0.442,0.279,0.982,0.5,1.621,0.662
				c0.64,0.162,1.375,0.244,2.207,0.244c0.772,0,1.489-0.086,2.154-0.259c0.664-0.173,1.243-0.416,1.735-0.73
				c0.492-0.315,0.878-0.69,1.157-1.126C349.803,65.206,349.943,64.729,349.943,64.212z M344.327,56.495
				c0.649,0,1.228-0.094,1.735-0.282c0.507-0.188,0.933-0.449,1.279-0.784c0.345-0.335,0.606-0.736,0.784-1.202
				c0.178-0.467,0.266-0.984,0.266-1.553c0-0.568-0.092-1.088-0.274-1.56c-0.183-0.472-0.449-0.875-0.799-1.21
				c-0.35-0.335-0.777-0.594-1.279-0.776s-1.073-0.274-1.712-0.274c-0.64,0-1.213,0.091-1.72,0.274
				c-0.508,0.183-0.936,0.441-1.287,0.776c-0.35,0.335-0.616,0.738-0.799,1.21c-0.183,0.472-0.274,0.992-0.274,1.56
				c0,0.568,0.092,1.086,0.274,1.553c0.183,0.467,0.449,0.868,0.799,1.202c0.35,0.335,0.779,0.596,1.287,0.784
				C343.114,56.401,343.687,56.495,344.327,56.495z"/>
			<path d="M357.203,42.826c0,0.183-0.038,0.353-0.115,0.51c-0.076,0.158-0.175,0.297-0.297,0.419
				c-0.122,0.122-0.264,0.218-0.426,0.289c-0.163,0.071-0.335,0.107-0.517,0.107s-0.355-0.035-0.518-0.107
				c-0.162-0.071-0.304-0.167-0.426-0.289c-0.122-0.122-0.218-0.261-0.289-0.419c-0.072-0.157-0.107-0.327-0.107-0.51
				s0.035-0.357,0.107-0.525c0.071-0.167,0.167-0.312,0.289-0.434c0.122-0.122,0.264-0.218,0.426-0.289
				c0.163-0.071,0.335-0.107,0.518-0.107s0.355,0.036,0.517,0.107c0.163,0.071,0.304,0.167,0.426,0.289
				c0.122,0.122,0.221,0.266,0.297,0.434C357.165,42.468,357.203,42.643,357.203,42.826z M356.564,48.047v15.145h-1.446V48.047
				H356.564z"/>
			<path d="M370.263,49.934c-0.071,0.142-0.183,0.213-0.335,0.213c-0.112,0-0.256-0.063-0.434-0.19
				c-0.178-0.127-0.41-0.269-0.7-0.426c-0.289-0.157-0.645-0.299-1.065-0.426c-0.421-0.127-0.936-0.19-1.545-0.19
				c-0.548,0-1.048,0.078-1.499,0.235c-0.452,0.157-0.837,0.367-1.157,0.63c-0.319,0.263-0.568,0.569-0.746,0.918
				c-0.178,0.349-0.266,0.716-0.266,1.101c0,0.476,0.122,0.87,0.365,1.184c0.244,0.314,0.563,0.582,0.959,0.804
				c0.395,0.223,0.845,0.415,1.347,0.577s1.017,0.324,1.545,0.486c0.527,0.163,1.042,0.342,1.544,0.54
				c0.503,0.198,0.951,0.444,1.347,0.738c0.395,0.294,0.716,0.654,0.959,1.081s0.365,0.944,0.365,1.553
				c0,0.66-0.119,1.273-0.357,1.842s-0.584,1.06-1.035,1.476c-0.451,0.416-1.007,0.746-1.666,0.989
				c-0.66,0.244-1.41,0.365-2.253,0.365c-1.065,0-1.984-0.17-2.755-0.51c-0.772-0.34-1.461-0.784-2.07-1.332l0.35-0.518
				c0.051-0.081,0.107-0.142,0.168-0.183c0.061-0.04,0.147-0.061,0.259-0.061c0.132,0,0.294,0.081,0.487,0.244
				c0.193,0.163,0.443,0.337,0.754,0.525c0.309,0.188,0.695,0.363,1.157,0.525c0.461,0.163,1.032,0.244,1.712,0.244
				c0.639,0,1.203-0.088,1.689-0.266c0.487-0.178,0.893-0.419,1.218-0.723c0.324-0.304,0.571-0.662,0.739-1.073
				c0.168-0.411,0.251-0.845,0.251-1.301c0-0.508-0.122-0.929-0.365-1.264c-0.244-0.335-0.563-0.619-0.958-0.852
				c-0.396-0.234-0.845-0.431-1.347-0.594c-0.502-0.162-1.019-0.325-1.552-0.487c-0.533-0.162-1.05-0.34-1.552-0.533
				c-0.502-0.193-0.951-0.436-1.347-0.731c-0.395-0.294-0.715-0.652-0.958-1.073c-0.244-0.421-0.365-0.946-0.365-1.575
				c0-0.538,0.116-1.055,0.35-1.553c0.234-0.497,0.566-0.933,0.997-1.309s0.956-0.675,1.575-0.898
				c0.619-0.223,1.315-0.335,2.085-0.335c0.923,0,1.743,0.134,2.459,0.401s1.373,0.677,1.971,1.227L370.263,49.934z"/>
			<path d="M379.137,63.436c-1.025,0-1.822-0.284-2.39-0.852c-0.569-0.568-0.852-1.446-0.852-2.633v-10.35h-2.177
				c-0.112,0-0.203-0.03-0.274-0.091s-0.107-0.147-0.107-0.259v-0.563l2.587-0.183l0.362-5.419c0.01-0.091,0.047-0.173,0.112-0.244
				s0.153-0.107,0.264-0.107h0.677v5.784h4.764v1.081h-4.764v10.274c0,0.416,0.054,0.774,0.16,1.073
				c0.107,0.299,0.254,0.546,0.442,0.738c0.188,0.193,0.408,0.335,0.662,0.426c0.254,0.091,0.527,0.137,0.822,0.137
				c0.365,0,0.68-0.053,0.944-0.16c0.264-0.106,0.492-0.223,0.685-0.35c0.193-0.127,0.35-0.244,0.472-0.35
				c0.122-0.106,0.218-0.16,0.289-0.16c0.081,0,0.163,0.051,0.244,0.152l0.396,0.639c-0.386,0.426-0.875,0.769-1.469,1.027
				C380.392,63.306,379.776,63.436,379.137,63.436z"/>
			<path d="M385.864,63.192V48.047h0.761c0.173,0,0.297,0.036,0.373,0.107s0.119,0.193,0.13,0.365l0.121,3.196
				c0.487-1.228,1.137-2.189,1.948-2.884c0.812-0.695,1.812-1.043,2.999-1.043c0.457,0,0.878,0.048,1.264,0.145
				c0.385,0.096,0.751,0.236,1.096,0.418l-0.198,1.005c-0.03,0.163-0.132,0.244-0.304,0.244c-0.061,0-0.147-0.02-0.259-0.061
				c-0.112-0.04-0.251-0.086-0.418-0.137s-0.373-0.096-0.617-0.137c-0.244-0.04-0.522-0.061-0.837-0.061
				c-1.147,0-2.088,0.355-2.824,1.066c-0.736,0.71-1.332,1.735-1.789,3.075v9.848H385.864z"/>
			<path d="M406.854,63.192c-0.304,0-0.492-0.142-0.563-0.426l-0.213-1.933c-0.416,0.406-0.83,0.771-1.24,1.096
				c-0.411,0.325-0.84,0.599-1.287,0.822s-0.928,0.393-1.446,0.51c-0.518,0.117-1.086,0.175-1.705,0.175
				c-0.518,0-1.02-0.076-1.507-0.229c-0.487-0.152-0.918-0.385-1.294-0.7s-0.677-0.718-0.905-1.21
				c-0.229-0.492-0.342-1.083-0.342-1.773c0-0.639,0.183-1.233,0.548-1.781c0.365-0.548,0.936-1.025,1.712-1.431
				c0.777-0.406,1.776-0.731,2.999-0.974c1.223-0.244,2.691-0.385,4.406-0.426v-1.583c0-1.4-0.302-2.479-0.905-3.235
				c-0.604-0.756-1.499-1.134-2.686-1.134c-0.731,0-1.352,0.102-1.865,0.304c-0.513,0.203-0.946,0.426-1.302,0.67
				s-0.645,0.467-0.868,0.67c-0.223,0.203-0.411,0.304-0.563,0.304c-0.203,0-0.355-0.091-0.457-0.274l-0.259-0.442
				c0.792-0.791,1.623-1.39,2.497-1.796c0.872-0.406,1.862-0.609,2.968-0.609c0.812,0,1.522,0.129,2.131,0.388
				c0.609,0.259,1.113,0.629,1.514,1.111c0.401,0.482,0.703,1.066,0.905,1.75c0.203,0.685,0.304,1.448,0.304,2.291v9.863H406.854z
				 M400.766,62.385c0.588,0,1.128-0.063,1.621-0.19c0.492-0.127,0.948-0.304,1.37-0.533c0.421-0.228,0.815-0.5,1.18-0.814
				c0.365-0.314,0.725-0.655,1.08-1.02v-3.942c-1.441,0.04-2.681,0.15-3.721,0.327c-1.04,0.178-1.898,0.418-2.572,0.723
				s-1.172,0.667-1.491,1.089c-0.319,0.421-0.479,0.9-0.479,1.438c0,0.508,0.083,0.947,0.251,1.317
				c0.168,0.371,0.388,0.675,0.662,0.913c0.274,0.239,0.594,0.414,0.959,0.525C399.989,62.329,400.37,62.385,400.766,62.385z"/>
			<path d="M411.998,63.192V48.047h0.761c0.173,0,0.297,0.036,0.372,0.107c0.077,0.071,0.12,0.193,0.13,0.365l0.122,3.196
				c0.487-1.228,1.136-2.189,1.948-2.884c0.812-0.695,1.811-1.043,2.999-1.043c0.456,0,0.878,0.048,1.263,0.145
				c0.385,0.096,0.751,0.236,1.096,0.418l-0.198,1.005c-0.031,0.163-0.132,0.244-0.304,0.244c-0.061,0-0.148-0.02-0.259-0.061
				c-0.112-0.04-0.251-0.086-0.419-0.137c-0.167-0.051-0.373-0.096-0.616-0.137c-0.244-0.04-0.523-0.061-0.837-0.061
				c-1.147,0-2.087,0.355-2.823,1.066c-0.736,0.71-1.332,1.735-1.789,3.075v9.848H411.998z"/>
		</g>
	</g>
	<g>
		<linearGradient id="SVGID_1_" gradientUnits="userSpaceOnUse" x1="75.7966" y1="30.132" x2="47.8283" y2="84.7546">
			<stop  offset="0" style="stop-color:#BC8DFF"/>
			<stop  offset="1" style="stop-color:#69DFFF"/>
		</linearGradient>
		<path class="st0" d="M49.77,75.897c-0.038,0.069-0.101,0.214,0.011,0.407c0.123,0.213,0.302,0.213,0.37,0.213l7.08,0.001
			l26.166-45.32c1.183-2.049,1.293-4.459,0.329-6.575c-1.194-2.622-3.877-4.246-6.758-4.246H53.131v0.007
			c-1.769,0.074-3.27,1.451-3.349,3.233c-0.085,1.93,1.443,3.522,3.349,3.545v0.002h2.687L26.317,78.261
			c-1.346,2.331-1.303,5.128,0.129,7.429c1.333,2.143,3.73,3.392,6.254,3.392h40.435c1.742,0,3.271-1.276,3.462-3.008
			c0.226-2.047-1.371-3.78-3.372-3.78h-40.66c-0.067,0-0.246,0-0.37-0.213c-0.123-0.213-0.034-0.368,0-0.427l31.439-54.491h13.513
			c0.067,0,0.246,0,0.37,0.213c0.123,0.213,0.034,0.368,0,0.427L49.77,75.897z"/>
	</g>
</g>
</svg>
